<svg width="330" height="330" viewBox="0 0 330 330" fill="none" xmlns="http://www.w3.org/2000/svg">
<rect opacity="0.9" x="19.0393" y="19.0393" width="291.921" height="291.921" rx="49.5" stroke="#404040"/>
<rect opacity="0.9" x="37.5786" y="0.5" width="254.843" height="329" rx="49.5" stroke="#404040"/>
<rect opacity="0.9" x="0.5" y="0.5" width="329" height="329" rx="49.5" stroke="#404040"/>
<rect opacity="0.9" x="0.5" y="0.5" width="329" height="329" rx="164.5" stroke="#404040"/>
<rect opacity="0.9" x="0.5" y="37.5786" width="329" height="254.843" rx="49.5" stroke="#404040"/>
<mask id="mask0_114_2303" style="mask-type:alpha" maskUnits="userSpaceOnUse" x="25" y="25" width="280" height="280">
<g clip-path="url(#clip0_114_2303)">
<g clip-path="url(#clip1_114_2303)">
<circle cx="27.4551" cy="27.4551" r="1.5" fill="#404040"/>
<circle cx="38.4551" cy="27.4551" r="1.5" fill="#404040"/>
<circle cx="49.4551" cy="27.4551" r="1.5" fill="#404040"/>
<circle cx="60.4551" cy="27.4551" r="1.5" fill="#404040"/>
<circle cx="71.4551" cy="27.4551" r="1.5" fill="#404040"/>
<circle cx="82.4551" cy="27.4551" r="1.5" fill="#404040"/>
<circle cx="93.4551" cy="27.4551" r="1.5" fill="#404040"/>
<circle cx="104.455" cy="27.4551" r="1.5" fill="#404040"/>
<circle cx="115.455" cy="27.4551" r="1.5" fill="#404040"/>
<circle cx="126.455" cy="27.4551" r="1.5" fill="#404040"/>
<circle cx="137.455" cy="27.4551" r="1.5" fill="#404040"/>
<circle cx="148.455" cy="27.4551" r="1.5" fill="#404040"/>
<circle cx="159.455" cy="27.4551" r="1.5" fill="#404040"/>
<circle cx="170.455" cy="27.4551" r="1.5" fill="#404040"/>
<circle cx="181.455" cy="27.4551" r="1.5" fill="#404040"/>
<circle cx="192.455" cy="27.4551" r="1.5" fill="#404040"/>
<circle cx="203.455" cy="27.4551" r="1.5" fill="#404040"/>
<circle cx="214.455" cy="27.4551" r="1.5" fill="#404040"/>
<circle cx="225.455" cy="27.4551" r="1.5" fill="#404040"/>
<circle cx="236.455" cy="27.4551" r="1.5" fill="#404040"/>
<circle cx="247.455" cy="27.4551" r="1.5" fill="#404040"/>
<circle cx="258.455" cy="27.4551" r="1.5" fill="#404040"/>
<circle cx="269.455" cy="27.4551" r="1.5" fill="#404040"/>
<circle cx="280.455" cy="27.4551" r="1.5" fill="#404040"/>
<circle cx="291.455" cy="27.4551" r="1.5" fill="#404040"/>
<circle cx="302.455" cy="27.4551" r="1.5" fill="#404040"/>
</g>
<g clip-path="url(#clip2_114_2303)">
<circle cx="27.4551" cy="38.4551" r="1.5" fill="#404040"/>
<circle cx="38.4551" cy="38.4551" r="1.5" fill="#404040"/>
<circle cx="49.4551" cy="38.4551" r="1.5" fill="#404040"/>
<circle cx="60.4551" cy="38.4551" r="1.5" fill="#404040"/>
<circle cx="71.4551" cy="38.4551" r="1.5" fill="#404040"/>
<circle cx="82.4551" cy="38.4551" r="1.5" fill="#404040"/>
<circle cx="93.4551" cy="38.4551" r="1.5" fill="#404040"/>
<circle cx="104.455" cy="38.4551" r="1.5" fill="#404040"/>
<circle cx="115.455" cy="38.4551" r="1.5" fill="#404040"/>
<circle cx="126.455" cy="38.4551" r="1.5" fill="#404040"/>
<circle cx="137.455" cy="38.4551" r="1.5" fill="#404040"/>
<circle cx="148.455" cy="38.4551" r="1.5" fill="#404040"/>
<circle cx="159.455" cy="38.4551" r="1.5" fill="#404040"/>
<circle cx="170.455" cy="38.4551" r="1.5" fill="#404040"/>
<circle cx="181.455" cy="38.4551" r="1.5" fill="#404040"/>
<circle cx="192.455" cy="38.4551" r="1.5" fill="#404040"/>
<circle cx="203.455" cy="38.4551" r="1.5" fill="#404040"/>
<circle cx="214.455" cy="38.4551" r="1.5" fill="#404040"/>
<circle cx="225.455" cy="38.4551" r="1.5" fill="#404040"/>
<circle cx="236.455" cy="38.4551" r="1.5" fill="#404040"/>
<circle cx="247.455" cy="38.4551" r="1.5" fill="#404040"/>
<circle cx="258.455" cy="38.4551" r="1.5" fill="#404040"/>
<circle cx="269.455" cy="38.4551" r="1.5" fill="#404040"/>
<circle cx="280.455" cy="38.4551" r="1.5" fill="#404040"/>
<circle cx="291.455" cy="38.4551" r="1.5" fill="#404040"/>
<circle cx="302.455" cy="38.4551" r="1.5" fill="#404040"/>
</g>
<g clip-path="url(#clip3_114_2303)">
<circle cx="27.4551" cy="49.4551" r="1.5" fill="#404040"/>
<circle cx="38.4551" cy="49.4551" r="1.5" fill="#404040"/>
<circle cx="49.4551" cy="49.4551" r="1.5" fill="#404040"/>
<circle cx="60.4551" cy="49.4551" r="1.5" fill="#404040"/>
<circle cx="71.4551" cy="49.4551" r="1.5" fill="#404040"/>
<circle cx="82.4551" cy="49.4551" r="1.5" fill="#404040"/>
<circle cx="93.4551" cy="49.4551" r="1.5" fill="#404040"/>
<circle cx="104.455" cy="49.4551" r="1.5" fill="#404040"/>
<circle cx="115.455" cy="49.4551" r="1.5" fill="#404040"/>
<circle cx="126.455" cy="49.4551" r="1.5" fill="#404040"/>
<circle cx="137.455" cy="49.4551" r="1.5" fill="#404040"/>
<circle cx="148.455" cy="49.4551" r="1.5" fill="#404040"/>
<circle cx="159.455" cy="49.4551" r="1.5" fill="#404040"/>
<circle cx="170.455" cy="49.4551" r="1.5" fill="#404040"/>
<circle cx="181.455" cy="49.4551" r="1.5" fill="#404040"/>
<circle cx="192.455" cy="49.4551" r="1.5" fill="#404040"/>
<circle cx="203.455" cy="49.4551" r="1.5" fill="#404040"/>
<circle cx="214.455" cy="49.4551" r="1.5" fill="#404040"/>
<circle cx="225.455" cy="49.4551" r="1.5" fill="#404040"/>
<circle cx="236.455" cy="49.4551" r="1.5" fill="#404040"/>
<circle cx="247.455" cy="49.4551" r="1.5" fill="#404040"/>
<circle cx="258.455" cy="49.4551" r="1.5" fill="#404040"/>
<circle cx="269.455" cy="49.4551" r="1.5" fill="#404040"/>
<circle cx="280.455" cy="49.4551" r="1.5" fill="#404040"/>
<circle cx="291.455" cy="49.4551" r="1.5" fill="#404040"/>
<circle cx="302.455" cy="49.4551" r="1.5" fill="#404040"/>
</g>
<g clip-path="url(#clip4_114_2303)">
<circle cx="27.4551" cy="60.4551" r="1.5" fill="#404040"/>
<circle cx="38.4551" cy="60.4551" r="1.5" fill="#404040"/>
<circle cx="49.4551" cy="60.4551" r="1.5" fill="#404040"/>
<circle cx="60.4551" cy="60.4551" r="1.5" fill="#404040"/>
<circle cx="71.4551" cy="60.4551" r="1.5" fill="#404040"/>
<circle cx="82.4551" cy="60.4551" r="1.5" fill="#404040"/>
<circle cx="93.4551" cy="60.4551" r="1.5" fill="#404040"/>
<circle cx="104.455" cy="60.4551" r="1.5" fill="#404040"/>
<circle cx="115.455" cy="60.4551" r="1.5" fill="#404040"/>
<circle cx="126.455" cy="60.4551" r="1.5" fill="#404040"/>
<circle cx="137.455" cy="60.4551" r="1.5" fill="#404040"/>
<circle cx="148.455" cy="60.4551" r="1.5" fill="#404040"/>
<circle cx="159.455" cy="60.4551" r="1.5" fill="#404040"/>
<circle cx="170.455" cy="60.4551" r="1.5" fill="#404040"/>
<circle cx="181.455" cy="60.4551" r="1.5" fill="#404040"/>
<circle cx="192.455" cy="60.4551" r="1.5" fill="#404040"/>
<circle cx="203.455" cy="60.4551" r="1.5" fill="#404040"/>
<circle cx="214.455" cy="60.4551" r="1.5" fill="#404040"/>
<circle cx="225.455" cy="60.4551" r="1.5" fill="#404040"/>
<circle cx="236.455" cy="60.4551" r="1.5" fill="#404040"/>
<circle cx="247.455" cy="60.4551" r="1.5" fill="#404040"/>
<circle cx="258.455" cy="60.4551" r="1.5" fill="#404040"/>
<circle cx="269.455" cy="60.4551" r="1.5" fill="#404040"/>
<circle cx="280.455" cy="60.4551" r="1.5" fill="#404040"/>
<circle cx="291.455" cy="60.4551" r="1.5" fill="#404040"/>
<circle cx="302.455" cy="60.4551" r="1.5" fill="#404040"/>
</g>
<g clip-path="url(#clip5_114_2303)">
<circle cx="27.4551" cy="71.4551" r="1.5" fill="#404040"/>
<circle cx="38.4551" cy="71.4551" r="1.5" fill="#404040"/>
<circle cx="49.4551" cy="71.4551" r="1.5" fill="#404040"/>
<circle cx="60.4551" cy="71.4551" r="1.5" fill="#404040"/>
<circle cx="71.4551" cy="71.4551" r="1.5" fill="#404040"/>
<circle cx="82.4551" cy="71.4551" r="1.5" fill="#404040"/>
<circle cx="93.4551" cy="71.4551" r="1.5" fill="#404040"/>
<circle cx="104.455" cy="71.4551" r="1.5" fill="#404040"/>
<circle cx="115.455" cy="71.4551" r="1.5" fill="#404040"/>
<circle cx="126.455" cy="71.4551" r="1.5" fill="#404040"/>
<circle cx="137.455" cy="71.4551" r="1.5" fill="#404040"/>
<circle cx="148.455" cy="71.4551" r="1.5" fill="#404040"/>
<circle cx="159.455" cy="71.4551" r="1.5" fill="#404040"/>
<circle cx="170.455" cy="71.4551" r="1.5" fill="#404040"/>
<circle cx="181.455" cy="71.4551" r="1.5" fill="#404040"/>
<circle cx="192.455" cy="71.4551" r="1.5" fill="#404040"/>
<circle cx="203.455" cy="71.4551" r="1.5" fill="#404040"/>
<circle cx="214.455" cy="71.4551" r="1.5" fill="#404040"/>
<circle cx="225.455" cy="71.4551" r="1.5" fill="#404040"/>
<circle cx="236.455" cy="71.4551" r="1.5" fill="#404040"/>
<circle cx="247.455" cy="71.4551" r="1.5" fill="#404040"/>
<circle cx="258.455" cy="71.4551" r="1.5" fill="#404040"/>
<circle cx="269.455" cy="71.4551" r="1.5" fill="#404040"/>
<circle cx="280.455" cy="71.4551" r="1.5" fill="#404040"/>
<circle cx="291.455" cy="71.4551" r="1.5" fill="#404040"/>
<circle cx="302.455" cy="71.4551" r="1.5" fill="#404040"/>
</g>
<g clip-path="url(#clip6_114_2303)">
<circle cx="27.4551" cy="82.4551" r="1.5" fill="#404040"/>
<circle cx="38.4551" cy="82.4551" r="1.5" fill="#404040"/>
<circle cx="49.4551" cy="82.4551" r="1.5" fill="#404040"/>
<circle cx="60.4551" cy="82.4551" r="1.5" fill="#404040"/>
<circle cx="71.4551" cy="82.4551" r="1.5" fill="#404040"/>
<circle cx="82.4551" cy="82.4551" r="1.5" fill="#404040"/>
<circle cx="93.4551" cy="82.4551" r="1.5" fill="#404040"/>
<circle cx="104.455" cy="82.4551" r="1.5" fill="#404040"/>
<circle cx="115.455" cy="82.4551" r="1.5" fill="#404040"/>
<circle cx="126.455" cy="82.4551" r="1.5" fill="#404040"/>
<circle cx="137.455" cy="82.4551" r="1.5" fill="#404040"/>
<circle cx="148.455" cy="82.4551" r="1.5" fill="#404040"/>
<circle cx="159.455" cy="82.4551" r="1.5" fill="#404040"/>
<circle cx="170.455" cy="82.4551" r="1.5" fill="#404040"/>
<circle cx="181.455" cy="82.4551" r="1.5" fill="#404040"/>
<circle cx="192.455" cy="82.4551" r="1.5" fill="#404040"/>
<circle cx="203.455" cy="82.4551" r="1.5" fill="#404040"/>
<circle cx="214.455" cy="82.4551" r="1.5" fill="#404040"/>
<circle cx="225.455" cy="82.4551" r="1.5" fill="#404040"/>
<circle cx="236.455" cy="82.4551" r="1.5" fill="#404040"/>
<circle cx="247.455" cy="82.4551" r="1.5" fill="#404040"/>
<circle cx="258.455" cy="82.4551" r="1.5" fill="#404040"/>
<circle cx="269.455" cy="82.4551" r="1.5" fill="#404040"/>
<circle cx="280.455" cy="82.4551" r="1.5" fill="#404040"/>
<circle cx="291.455" cy="82.4551" r="1.5" fill="#404040"/>
<circle cx="302.455" cy="82.4551" r="1.5" fill="#404040"/>
</g>
<g clip-path="url(#clip7_114_2303)">
<circle cx="27.4551" cy="93.4551" r="1.5" fill="#404040"/>
<circle cx="38.4551" cy="93.4551" r="1.5" fill="#404040"/>
<circle cx="49.4551" cy="93.4551" r="1.5" fill="#404040"/>
<circle cx="60.4551" cy="93.4551" r="1.5" fill="#404040"/>
<circle cx="71.4551" cy="93.4551" r="1.5" fill="#404040"/>
<circle cx="82.4551" cy="93.4551" r="1.5" fill="#404040"/>
<circle cx="93.4551" cy="93.4551" r="1.5" fill="#404040"/>
<circle cx="104.455" cy="93.4551" r="1.5" fill="#404040"/>
<circle cx="115.455" cy="93.4551" r="1.5" fill="#404040"/>
<circle cx="126.455" cy="93.4551" r="1.5" fill="#404040"/>
<circle cx="137.455" cy="93.4551" r="1.5" fill="#404040"/>
<circle cx="148.455" cy="93.4551" r="1.5" fill="#404040"/>
<circle cx="159.455" cy="93.4551" r="1.5" fill="#404040"/>
<circle cx="170.455" cy="93.4551" r="1.5" fill="#404040"/>
<circle cx="181.455" cy="93.4551" r="1.5" fill="#404040"/>
<circle cx="192.455" cy="93.4551" r="1.5" fill="#404040"/>
<circle cx="203.455" cy="93.4551" r="1.5" fill="#404040"/>
<circle cx="214.455" cy="93.4551" r="1.5" fill="#404040"/>
<circle cx="225.455" cy="93.4551" r="1.5" fill="#404040"/>
<circle cx="236.455" cy="93.4551" r="1.5" fill="#404040"/>
<circle cx="247.455" cy="93.4551" r="1.5" fill="#404040"/>
<circle cx="258.455" cy="93.4551" r="1.5" fill="#404040"/>
<circle cx="269.455" cy="93.4551" r="1.5" fill="#404040"/>
<circle cx="280.455" cy="93.4551" r="1.5" fill="#404040"/>
<circle cx="291.455" cy="93.4551" r="1.5" fill="#404040"/>
<circle cx="302.455" cy="93.4551" r="1.5" fill="#404040"/>
</g>
<g clip-path="url(#clip8_114_2303)">
<circle cx="27.4551" cy="104.455" r="1.5" fill="#404040"/>
<circle cx="38.4551" cy="104.455" r="1.5" fill="#404040"/>
<circle cx="49.4551" cy="104.455" r="1.5" fill="#404040"/>
<circle cx="60.4551" cy="104.455" r="1.5" fill="#404040"/>
<circle cx="71.4551" cy="104.455" r="1.5" fill="#404040"/>
<circle cx="82.4551" cy="104.455" r="1.5" fill="#404040"/>
<circle cx="93.4551" cy="104.455" r="1.5" fill="#404040"/>
<circle cx="104.455" cy="104.455" r="1.5" fill="#404040"/>
<circle cx="115.455" cy="104.455" r="1.5" fill="#404040"/>
<circle cx="126.455" cy="104.455" r="1.5" fill="#404040"/>
<circle cx="137.455" cy="104.455" r="1.5" fill="#404040"/>
<circle cx="148.455" cy="104.455" r="1.5" fill="#404040"/>
<circle cx="159.455" cy="104.455" r="1.5" fill="#404040"/>
<circle cx="170.455" cy="104.455" r="1.5" fill="#404040"/>
<circle cx="181.455" cy="104.455" r="1.5" fill="#404040"/>
<circle cx="192.455" cy="104.455" r="1.5" fill="#404040"/>
<circle cx="203.455" cy="104.455" r="1.5" fill="#404040"/>
<circle cx="214.455" cy="104.455" r="1.5" fill="#404040"/>
<circle cx="225.455" cy="104.455" r="1.5" fill="#404040"/>
<circle cx="236.455" cy="104.455" r="1.5" fill="#404040"/>
<circle cx="247.455" cy="104.455" r="1.5" fill="#404040"/>
<circle cx="258.455" cy="104.455" r="1.5" fill="#404040"/>
<circle cx="269.455" cy="104.455" r="1.5" fill="#404040"/>
<circle cx="280.455" cy="104.455" r="1.5" fill="#404040"/>
<circle cx="291.455" cy="104.455" r="1.5" fill="#404040"/>
<circle cx="302.455" cy="104.455" r="1.5" fill="#404040"/>
</g>
<g clip-path="url(#clip9_114_2303)">
<circle cx="27.4551" cy="115.455" r="1.5" fill="#404040"/>
<circle cx="38.4551" cy="115.455" r="1.5" fill="#404040"/>
<circle cx="49.4551" cy="115.455" r="1.5" fill="#404040"/>
<circle cx="60.4551" cy="115.455" r="1.5" fill="#404040"/>
<circle cx="71.4551" cy="115.455" r="1.5" fill="#404040"/>
<circle cx="82.4551" cy="115.455" r="1.5" fill="#404040"/>
<circle cx="93.4551" cy="115.455" r="1.5" fill="#404040"/>
<circle cx="104.455" cy="115.455" r="1.5" fill="#404040"/>
<circle cx="115.455" cy="115.455" r="1.5" fill="#404040"/>
<circle cx="126.455" cy="115.455" r="1.5" fill="#404040"/>
<circle cx="137.455" cy="115.455" r="1.5" fill="#404040"/>
<circle cx="148.455" cy="115.455" r="1.5" fill="#404040"/>
<circle cx="159.455" cy="115.455" r="1.5" fill="#404040"/>
<circle cx="170.455" cy="115.455" r="1.5" fill="#404040"/>
<circle cx="181.455" cy="115.455" r="1.5" fill="#404040"/>
<circle cx="192.455" cy="115.455" r="1.5" fill="#404040"/>
<circle cx="203.455" cy="115.455" r="1.5" fill="#404040"/>
<circle cx="214.455" cy="115.455" r="1.5" fill="#404040"/>
<circle cx="225.455" cy="115.455" r="1.5" fill="#404040"/>
<circle cx="236.455" cy="115.455" r="1.5" fill="#404040"/>
<circle cx="247.455" cy="115.455" r="1.5" fill="#404040"/>
<circle cx="258.455" cy="115.455" r="1.5" fill="#404040"/>
<circle cx="269.455" cy="115.455" r="1.5" fill="#404040"/>
<circle cx="280.455" cy="115.455" r="1.5" fill="#404040"/>
<circle cx="291.455" cy="115.455" r="1.5" fill="#404040"/>
<circle cx="302.455" cy="115.455" r="1.5" fill="#404040"/>
</g>
<g clip-path="url(#clip10_114_2303)">
<circle cx="27.4551" cy="126.455" r="1.5" fill="#404040"/>
<circle cx="38.4551" cy="126.455" r="1.5" fill="#404040"/>
<circle cx="49.4551" cy="126.455" r="1.5" fill="#404040"/>
<circle cx="60.4551" cy="126.455" r="1.5" fill="#404040"/>
<circle cx="71.4551" cy="126.455" r="1.5" fill="#404040"/>
<circle cx="82.4551" cy="126.455" r="1.5" fill="#404040"/>
<circle cx="93.4551" cy="126.455" r="1.5" fill="#404040"/>
<circle cx="104.455" cy="126.455" r="1.5" fill="#404040"/>
<circle cx="115.455" cy="126.455" r="1.5" fill="#404040"/>
<circle cx="126.455" cy="126.455" r="1.5" fill="#404040"/>
<circle cx="137.455" cy="126.455" r="1.5" fill="#404040"/>
<circle cx="148.455" cy="126.455" r="1.5" fill="#404040"/>
<circle cx="159.455" cy="126.455" r="1.5" fill="#404040"/>
<circle cx="170.455" cy="126.455" r="1.5" fill="#404040"/>
<circle cx="181.455" cy="126.455" r="1.5" fill="#404040"/>
<circle cx="192.455" cy="126.455" r="1.5" fill="#404040"/>
<circle cx="203.455" cy="126.455" r="1.5" fill="#404040"/>
<circle cx="214.455" cy="126.455" r="1.5" fill="#404040"/>
<circle cx="225.455" cy="126.455" r="1.5" fill="#404040"/>
<circle cx="236.455" cy="126.455" r="1.5" fill="#404040"/>
<circle cx="247.455" cy="126.455" r="1.5" fill="#404040"/>
<circle cx="258.455" cy="126.455" r="1.5" fill="#404040"/>
<circle cx="269.455" cy="126.455" r="1.5" fill="#404040"/>
<circle cx="280.455" cy="126.455" r="1.5" fill="#404040"/>
<circle cx="291.455" cy="126.455" r="1.5" fill="#404040"/>
<circle cx="302.455" cy="126.455" r="1.5" fill="#404040"/>
</g>
<g clip-path="url(#clip11_114_2303)">
<circle cx="27.4551" cy="137.455" r="1.5" fill="#404040"/>
<circle cx="38.4551" cy="137.455" r="1.5" fill="#404040"/>
<circle cx="49.4551" cy="137.455" r="1.5" fill="#404040"/>
<circle cx="60.4551" cy="137.455" r="1.5" fill="#404040"/>
<circle cx="71.4551" cy="137.455" r="1.5" fill="#404040"/>
<circle cx="82.4551" cy="137.455" r="1.5" fill="#404040"/>
<circle cx="93.4551" cy="137.455" r="1.5" fill="#404040"/>
<circle cx="104.455" cy="137.455" r="1.5" fill="#404040"/>
<circle cx="115.455" cy="137.455" r="1.5" fill="#404040"/>
<circle cx="126.455" cy="137.455" r="1.5" fill="#404040"/>
<circle cx="137.455" cy="137.455" r="1.5" fill="#404040"/>
<circle cx="148.455" cy="137.455" r="1.5" fill="#404040"/>
<circle cx="159.455" cy="137.455" r="1.5" fill="#404040"/>
<circle cx="170.455" cy="137.455" r="1.5" fill="#404040"/>
<circle cx="181.455" cy="137.455" r="1.5" fill="#404040"/>
<circle cx="192.455" cy="137.455" r="1.5" fill="#404040"/>
<circle cx="203.455" cy="137.455" r="1.5" fill="#404040"/>
<circle cx="214.455" cy="137.455" r="1.5" fill="#404040"/>
<circle cx="225.455" cy="137.455" r="1.5" fill="#404040"/>
<circle cx="236.455" cy="137.455" r="1.5" fill="#404040"/>
<circle cx="247.455" cy="137.455" r="1.5" fill="#404040"/>
<circle cx="258.455" cy="137.455" r="1.5" fill="#404040"/>
<circle cx="269.455" cy="137.455" r="1.5" fill="#404040"/>
<circle cx="280.455" cy="137.455" r="1.5" fill="#404040"/>
<circle cx="291.455" cy="137.455" r="1.5" fill="#404040"/>
<circle cx="302.455" cy="137.455" r="1.5" fill="#404040"/>
</g>
<g clip-path="url(#clip12_114_2303)">
<circle cx="27.4551" cy="148.455" r="1.5" fill="#404040"/>
<circle cx="38.4551" cy="148.455" r="1.5" fill="#404040"/>
<circle cx="49.4551" cy="148.455" r="1.5" fill="#404040"/>
<circle cx="60.4551" cy="148.455" r="1.5" fill="#404040"/>
<circle cx="71.4551" cy="148.455" r="1.5" fill="#404040"/>
<circle cx="82.4551" cy="148.455" r="1.5" fill="#404040"/>
<circle cx="93.4551" cy="148.455" r="1.5" fill="#404040"/>
<circle cx="104.455" cy="148.455" r="1.5" fill="#404040"/>
<circle cx="115.455" cy="148.455" r="1.5" fill="#404040"/>
<circle cx="126.455" cy="148.455" r="1.5" fill="#404040"/>
<circle cx="137.455" cy="148.455" r="1.5" fill="#404040"/>
<circle cx="148.455" cy="148.455" r="1.5" fill="#404040"/>
<circle cx="159.455" cy="148.455" r="1.5" fill="#404040"/>
<circle cx="170.455" cy="148.455" r="1.5" fill="#404040"/>
<circle cx="181.455" cy="148.455" r="1.5" fill="#404040"/>
<circle cx="192.455" cy="148.455" r="1.5" fill="#404040"/>
<circle cx="203.455" cy="148.455" r="1.5" fill="#404040"/>
<circle cx="214.455" cy="148.455" r="1.5" fill="#404040"/>
<circle cx="225.455" cy="148.455" r="1.5" fill="#404040"/>
<circle cx="236.455" cy="148.455" r="1.5" fill="#404040"/>
<circle cx="247.455" cy="148.455" r="1.5" fill="#404040"/>
<circle cx="258.455" cy="148.455" r="1.5" fill="#404040"/>
<circle cx="269.455" cy="148.455" r="1.5" fill="#404040"/>
<circle cx="280.455" cy="148.455" r="1.5" fill="#404040"/>
<circle cx="291.455" cy="148.455" r="1.5" fill="#404040"/>
<circle cx="302.455" cy="148.455" r="1.5" fill="#404040"/>
</g>
<g clip-path="url(#clip13_114_2303)">
<circle cx="27.4551" cy="159.455" r="1.5" fill="#404040"/>
<circle cx="38.4551" cy="159.455" r="1.5" fill="#404040"/>
<circle cx="49.4551" cy="159.455" r="1.5" fill="#404040"/>
<circle cx="60.4551" cy="159.455" r="1.5" fill="#404040"/>
<circle cx="71.4551" cy="159.455" r="1.5" fill="#404040"/>
<circle cx="82.4551" cy="159.455" r="1.5" fill="#404040"/>
<circle cx="93.4551" cy="159.455" r="1.5" fill="#404040"/>
<circle cx="104.455" cy="159.455" r="1.5" fill="#404040"/>
<circle cx="115.455" cy="159.455" r="1.5" fill="#404040"/>
<circle cx="126.455" cy="159.455" r="1.5" fill="#404040"/>
<circle cx="137.455" cy="159.455" r="1.5" fill="#404040"/>
<circle cx="148.455" cy="159.455" r="1.5" fill="#404040"/>
<circle cx="159.455" cy="159.455" r="1.5" fill="#404040"/>
<circle cx="170.455" cy="159.455" r="1.5" fill="#404040"/>
<circle cx="181.455" cy="159.455" r="1.5" fill="#404040"/>
<circle cx="192.455" cy="159.455" r="1.5" fill="#404040"/>
<circle cx="203.455" cy="159.455" r="1.5" fill="#404040"/>
<circle cx="214.455" cy="159.455" r="1.5" fill="#404040"/>
<circle cx="225.455" cy="159.455" r="1.5" fill="#404040"/>
<circle cx="236.455" cy="159.455" r="1.5" fill="#404040"/>
<circle cx="247.455" cy="159.455" r="1.5" fill="#404040"/>
<circle cx="258.455" cy="159.455" r="1.5" fill="#404040"/>
<circle cx="269.455" cy="159.455" r="1.5" fill="#404040"/>
<circle cx="280.455" cy="159.455" r="1.5" fill="#404040"/>
<circle cx="291.455" cy="159.455" r="1.5" fill="#404040"/>
<circle cx="302.455" cy="159.455" r="1.5" fill="#404040"/>
</g>
<g clip-path="url(#clip14_114_2303)">
<circle cx="27.4551" cy="170.455" r="1.5" fill="#404040"/>
<circle cx="38.4551" cy="170.455" r="1.5" fill="#404040"/>
<circle cx="49.4551" cy="170.455" r="1.5" fill="#404040"/>
<circle cx="60.4551" cy="170.455" r="1.5" fill="#404040"/>
<circle cx="71.4551" cy="170.455" r="1.5" fill="#404040"/>
<circle cx="82.4551" cy="170.455" r="1.5" fill="#404040"/>
<circle cx="93.4551" cy="170.455" r="1.5" fill="#404040"/>
<circle cx="104.455" cy="170.455" r="1.5" fill="#404040"/>
<circle cx="115.455" cy="170.455" r="1.5" fill="#404040"/>
<circle cx="126.455" cy="170.455" r="1.5" fill="#404040"/>
<circle cx="137.455" cy="170.455" r="1.5" fill="#404040"/>
<circle cx="148.455" cy="170.455" r="1.5" fill="#404040"/>
<circle cx="159.455" cy="170.455" r="1.5" fill="#404040"/>
<circle cx="170.455" cy="170.455" r="1.5" fill="#404040"/>
<circle cx="181.455" cy="170.455" r="1.5" fill="#404040"/>
<circle cx="192.455" cy="170.455" r="1.5" fill="#404040"/>
<circle cx="203.455" cy="170.455" r="1.5" fill="#404040"/>
<circle cx="214.455" cy="170.455" r="1.5" fill="#404040"/>
<circle cx="225.455" cy="170.455" r="1.5" fill="#404040"/>
<circle cx="236.455" cy="170.455" r="1.5" fill="#404040"/>
<circle cx="247.455" cy="170.455" r="1.5" fill="#404040"/>
<circle cx="258.455" cy="170.455" r="1.5" fill="#404040"/>
<circle cx="269.455" cy="170.455" r="1.5" fill="#404040"/>
<circle cx="280.455" cy="170.455" r="1.5" fill="#404040"/>
<circle cx="291.455" cy="170.455" r="1.5" fill="#404040"/>
<circle cx="302.455" cy="170.455" r="1.5" fill="#404040"/>
</g>
<g clip-path="url(#clip15_114_2303)">
<circle cx="27.4551" cy="181.455" r="1.5" fill="#404040"/>
<circle cx="38.4551" cy="181.455" r="1.5" fill="#404040"/>
<circle cx="49.4551" cy="181.455" r="1.5" fill="#404040"/>
<circle cx="60.4551" cy="181.455" r="1.5" fill="#404040"/>
<circle cx="71.4551" cy="181.455" r="1.5" fill="#404040"/>
<circle cx="82.4551" cy="181.455" r="1.5" fill="#404040"/>
<circle cx="93.4551" cy="181.455" r="1.5" fill="#404040"/>
<circle cx="104.455" cy="181.455" r="1.5" fill="#404040"/>
<circle cx="115.455" cy="181.455" r="1.5" fill="#404040"/>
<circle cx="126.455" cy="181.455" r="1.5" fill="#404040"/>
<circle cx="137.455" cy="181.455" r="1.5" fill="#404040"/>
<circle cx="148.455" cy="181.455" r="1.5" fill="#404040"/>
<circle cx="159.455" cy="181.455" r="1.5" fill="#404040"/>
<circle cx="170.455" cy="181.455" r="1.5" fill="#404040"/>
<circle cx="181.455" cy="181.455" r="1.5" fill="#404040"/>
<circle cx="192.455" cy="181.455" r="1.5" fill="#404040"/>
<circle cx="203.455" cy="181.455" r="1.5" fill="#404040"/>
<circle cx="214.455" cy="181.455" r="1.5" fill="#404040"/>
<circle cx="225.455" cy="181.455" r="1.5" fill="#404040"/>
<circle cx="236.455" cy="181.455" r="1.5" fill="#404040"/>
<circle cx="247.455" cy="181.455" r="1.5" fill="#404040"/>
<circle cx="258.455" cy="181.455" r="1.5" fill="#404040"/>
<circle cx="269.455" cy="181.455" r="1.5" fill="#404040"/>
<circle cx="280.455" cy="181.455" r="1.5" fill="#404040"/>
<circle cx="291.455" cy="181.455" r="1.5" fill="#404040"/>
<circle cx="302.455" cy="181.455" r="1.5" fill="#404040"/>
</g>
<g clip-path="url(#clip16_114_2303)">
<circle cx="27.4551" cy="192.455" r="1.5" fill="#404040"/>
<circle cx="38.4551" cy="192.455" r="1.5" fill="#404040"/>
<circle cx="49.4551" cy="192.455" r="1.5" fill="#404040"/>
<circle cx="60.4551" cy="192.455" r="1.5" fill="#404040"/>
<circle cx="71.4551" cy="192.455" r="1.5" fill="#404040"/>
<circle cx="82.4551" cy="192.455" r="1.5" fill="#404040"/>
<circle cx="93.4551" cy="192.455" r="1.5" fill="#404040"/>
<circle cx="104.455" cy="192.455" r="1.5" fill="#404040"/>
<circle cx="115.455" cy="192.455" r="1.5" fill="#404040"/>
<circle cx="126.455" cy="192.455" r="1.5" fill="#404040"/>
<circle cx="137.455" cy="192.455" r="1.5" fill="#404040"/>
<circle cx="148.455" cy="192.455" r="1.5" fill="#404040"/>
<circle cx="159.455" cy="192.455" r="1.5" fill="#404040"/>
<circle cx="170.455" cy="192.455" r="1.5" fill="#404040"/>
<circle cx="181.455" cy="192.455" r="1.5" fill="#404040"/>
<circle cx="192.455" cy="192.455" r="1.5" fill="#404040"/>
<circle cx="203.455" cy="192.455" r="1.5" fill="#404040"/>
<circle cx="214.455" cy="192.455" r="1.5" fill="#404040"/>
<circle cx="225.455" cy="192.455" r="1.5" fill="#404040"/>
<circle cx="236.455" cy="192.455" r="1.5" fill="#404040"/>
<circle cx="247.455" cy="192.455" r="1.5" fill="#404040"/>
<circle cx="258.455" cy="192.455" r="1.5" fill="#404040"/>
<circle cx="269.455" cy="192.455" r="1.5" fill="#404040"/>
<circle cx="280.455" cy="192.455" r="1.5" fill="#404040"/>
<circle cx="291.455" cy="192.455" r="1.5" fill="#404040"/>
<circle cx="302.455" cy="192.455" r="1.5" fill="#404040"/>
</g>
<g clip-path="url(#clip17_114_2303)">
<circle cx="27.4551" cy="203.455" r="1.5" fill="#404040"/>
<circle cx="38.4551" cy="203.455" r="1.5" fill="#404040"/>
<circle cx="49.4551" cy="203.455" r="1.5" fill="#404040"/>
<circle cx="60.4551" cy="203.455" r="1.5" fill="#404040"/>
<circle cx="71.4551" cy="203.455" r="1.5" fill="#404040"/>
<circle cx="82.4551" cy="203.455" r="1.5" fill="#404040"/>
<circle cx="93.4551" cy="203.455" r="1.5" fill="#404040"/>
<circle cx="104.455" cy="203.455" r="1.5" fill="#404040"/>
<circle cx="115.455" cy="203.455" r="1.5" fill="#404040"/>
<circle cx="126.455" cy="203.455" r="1.5" fill="#404040"/>
<circle cx="137.455" cy="203.455" r="1.5" fill="#404040"/>
<circle cx="148.455" cy="203.455" r="1.5" fill="#404040"/>
<circle cx="159.455" cy="203.455" r="1.5" fill="#404040"/>
<circle cx="170.455" cy="203.455" r="1.5" fill="#404040"/>
<circle cx="181.455" cy="203.455" r="1.5" fill="#404040"/>
<circle cx="192.455" cy="203.455" r="1.5" fill="#404040"/>
<circle cx="203.455" cy="203.455" r="1.5" fill="#404040"/>
<circle cx="214.455" cy="203.455" r="1.5" fill="#404040"/>
<circle cx="225.455" cy="203.455" r="1.5" fill="#404040"/>
<circle cx="236.455" cy="203.455" r="1.5" fill="#404040"/>
<circle cx="247.455" cy="203.455" r="1.5" fill="#404040"/>
<circle cx="258.455" cy="203.455" r="1.5" fill="#404040"/>
<circle cx="269.455" cy="203.455" r="1.5" fill="#404040"/>
<circle cx="280.455" cy="203.455" r="1.5" fill="#404040"/>
<circle cx="291.455" cy="203.455" r="1.5" fill="#404040"/>
<circle cx="302.455" cy="203.455" r="1.5" fill="#404040"/>
</g>
<g clip-path="url(#clip18_114_2303)">
<circle cx="27.4551" cy="214.455" r="1.5" fill="#404040"/>
<circle cx="38.4551" cy="214.455" r="1.5" fill="#404040"/>
<circle cx="49.4551" cy="214.455" r="1.5" fill="#404040"/>
<circle cx="60.4551" cy="214.455" r="1.5" fill="#404040"/>
<circle cx="71.4551" cy="214.455" r="1.5" fill="#404040"/>
<circle cx="82.4551" cy="214.455" r="1.5" fill="#404040"/>
<circle cx="93.4551" cy="214.455" r="1.5" fill="#404040"/>
<circle cx="104.455" cy="214.455" r="1.5" fill="#404040"/>
<circle cx="115.455" cy="214.455" r="1.5" fill="#404040"/>
<circle cx="126.455" cy="214.455" r="1.5" fill="#404040"/>
<circle cx="137.455" cy="214.455" r="1.5" fill="#404040"/>
<circle cx="148.455" cy="214.455" r="1.5" fill="#404040"/>
<circle cx="159.455" cy="214.455" r="1.5" fill="#404040"/>
<circle cx="170.455" cy="214.455" r="1.5" fill="#404040"/>
<circle cx="181.455" cy="214.455" r="1.5" fill="#404040"/>
<circle cx="192.455" cy="214.455" r="1.5" fill="#404040"/>
<circle cx="203.455" cy="214.455" r="1.5" fill="#404040"/>
<circle cx="214.455" cy="214.455" r="1.5" fill="#404040"/>
<circle cx="225.455" cy="214.455" r="1.5" fill="#404040"/>
<circle cx="236.455" cy="214.455" r="1.5" fill="#404040"/>
<circle cx="247.455" cy="214.455" r="1.5" fill="#404040"/>
<circle cx="258.455" cy="214.455" r="1.5" fill="#404040"/>
<circle cx="269.455" cy="214.455" r="1.5" fill="#404040"/>
<circle cx="280.455" cy="214.455" r="1.5" fill="#404040"/>
<circle cx="291.455" cy="214.455" r="1.5" fill="#404040"/>
<circle cx="302.455" cy="214.455" r="1.5" fill="#404040"/>
</g>
<g clip-path="url(#clip19_114_2303)">
<circle cx="27.4551" cy="225.455" r="1.5" fill="#404040"/>
<circle cx="38.4551" cy="225.455" r="1.5" fill="#404040"/>
<circle cx="49.4551" cy="225.455" r="1.5" fill="#404040"/>
<circle cx="60.4551" cy="225.455" r="1.5" fill="#404040"/>
<circle cx="71.4551" cy="225.455" r="1.5" fill="#404040"/>
<circle cx="82.4551" cy="225.455" r="1.5" fill="#404040"/>
<circle cx="93.4551" cy="225.455" r="1.5" fill="#404040"/>
<circle cx="104.455" cy="225.455" r="1.5" fill="#404040"/>
<circle cx="115.455" cy="225.455" r="1.5" fill="#404040"/>
<circle cx="126.455" cy="225.455" r="1.5" fill="#404040"/>
<circle cx="137.455" cy="225.455" r="1.5" fill="#404040"/>
<circle cx="148.455" cy="225.455" r="1.5" fill="#404040"/>
<circle cx="159.455" cy="225.455" r="1.5" fill="#404040"/>
<circle cx="170.455" cy="225.455" r="1.5" fill="#404040"/>
<circle cx="181.455" cy="225.455" r="1.5" fill="#404040"/>
<circle cx="192.455" cy="225.455" r="1.5" fill="#404040"/>
<circle cx="203.455" cy="225.455" r="1.5" fill="#404040"/>
<circle cx="214.455" cy="225.455" r="1.5" fill="#404040"/>
<circle cx="225.455" cy="225.455" r="1.5" fill="#404040"/>
<circle cx="236.455" cy="225.455" r="1.5" fill="#404040"/>
<circle cx="247.455" cy="225.455" r="1.5" fill="#404040"/>
<circle cx="258.455" cy="225.455" r="1.5" fill="#404040"/>
<circle cx="269.455" cy="225.455" r="1.5" fill="#404040"/>
<circle cx="280.455" cy="225.455" r="1.5" fill="#404040"/>
<circle cx="291.455" cy="225.455" r="1.5" fill="#404040"/>
<circle cx="302.455" cy="225.455" r="1.5" fill="#404040"/>
</g>
<g clip-path="url(#clip20_114_2303)">
<circle cx="27.4551" cy="236.455" r="1.5" fill="#404040"/>
<circle cx="38.4551" cy="236.455" r="1.5" fill="#404040"/>
<circle cx="49.4551" cy="236.455" r="1.5" fill="#404040"/>
<circle cx="60.4551" cy="236.455" r="1.5" fill="#404040"/>
<circle cx="71.4551" cy="236.455" r="1.5" fill="#404040"/>
<circle cx="82.4551" cy="236.455" r="1.5" fill="#404040"/>
<circle cx="93.4551" cy="236.455" r="1.5" fill="#404040"/>
<circle cx="104.455" cy="236.455" r="1.5" fill="#404040"/>
<circle cx="115.455" cy="236.455" r="1.5" fill="#404040"/>
<circle cx="126.455" cy="236.455" r="1.5" fill="#404040"/>
<circle cx="137.455" cy="236.455" r="1.5" fill="#404040"/>
<circle cx="148.455" cy="236.455" r="1.5" fill="#404040"/>
<circle cx="159.455" cy="236.455" r="1.5" fill="#404040"/>
<circle cx="170.455" cy="236.455" r="1.5" fill="#404040"/>
<circle cx="181.455" cy="236.455" r="1.5" fill="#404040"/>
<circle cx="192.455" cy="236.455" r="1.5" fill="#404040"/>
<circle cx="203.455" cy="236.455" r="1.5" fill="#404040"/>
<circle cx="214.455" cy="236.455" r="1.5" fill="#404040"/>
<circle cx="225.455" cy="236.455" r="1.5" fill="#404040"/>
<circle cx="236.455" cy="236.455" r="1.5" fill="#404040"/>
<circle cx="247.455" cy="236.455" r="1.5" fill="#404040"/>
<circle cx="258.455" cy="236.455" r="1.5" fill="#404040"/>
<circle cx="269.455" cy="236.455" r="1.5" fill="#404040"/>
<circle cx="280.455" cy="236.455" r="1.5" fill="#404040"/>
<circle cx="291.455" cy="236.455" r="1.5" fill="#404040"/>
<circle cx="302.455" cy="236.455" r="1.5" fill="#404040"/>
</g>
<g clip-path="url(#clip21_114_2303)">
<circle cx="27.4551" cy="247.455" r="1.5" fill="#404040"/>
<circle cx="38.4551" cy="247.455" r="1.5" fill="#404040"/>
<circle cx="49.4551" cy="247.455" r="1.5" fill="#404040"/>
<circle cx="60.4551" cy="247.455" r="1.5" fill="#404040"/>
<circle cx="71.4551" cy="247.455" r="1.5" fill="#404040"/>
<circle cx="82.4551" cy="247.455" r="1.5" fill="#404040"/>
<circle cx="93.4551" cy="247.455" r="1.5" fill="#404040"/>
<circle cx="104.455" cy="247.455" r="1.5" fill="#404040"/>
<circle cx="115.455" cy="247.455" r="1.5" fill="#404040"/>
<circle cx="126.455" cy="247.455" r="1.5" fill="#404040"/>
<circle cx="137.455" cy="247.455" r="1.5" fill="#404040"/>
<circle cx="148.455" cy="247.455" r="1.5" fill="#404040"/>
<circle cx="159.455" cy="247.455" r="1.5" fill="#404040"/>
<circle cx="170.455" cy="247.455" r="1.5" fill="#404040"/>
<circle cx="181.455" cy="247.455" r="1.5" fill="#404040"/>
<circle cx="192.455" cy="247.455" r="1.5" fill="#404040"/>
<circle cx="203.455" cy="247.455" r="1.5" fill="#404040"/>
<circle cx="214.455" cy="247.455" r="1.5" fill="#404040"/>
<circle cx="225.455" cy="247.455" r="1.5" fill="#404040"/>
<circle cx="236.455" cy="247.455" r="1.5" fill="#404040"/>
<circle cx="247.455" cy="247.455" r="1.5" fill="#404040"/>
<circle cx="258.455" cy="247.455" r="1.5" fill="#404040"/>
<circle cx="269.455" cy="247.455" r="1.5" fill="#404040"/>
<circle cx="280.455" cy="247.455" r="1.5" fill="#404040"/>
<circle cx="291.455" cy="247.455" r="1.5" fill="#404040"/>
<circle cx="302.455" cy="247.455" r="1.5" fill="#404040"/>
</g>
<g clip-path="url(#clip22_114_2303)">
<circle cx="27.4551" cy="258.455" r="1.5" fill="#404040"/>
<circle cx="38.4551" cy="258.455" r="1.5" fill="#404040"/>
<circle cx="49.4551" cy="258.455" r="1.5" fill="#404040"/>
<circle cx="60.4551" cy="258.455" r="1.5" fill="#404040"/>
<circle cx="71.4551" cy="258.455" r="1.5" fill="#404040"/>
<circle cx="82.4551" cy="258.455" r="1.5" fill="#404040"/>
<circle cx="93.4551" cy="258.455" r="1.5" fill="#404040"/>
<circle cx="104.455" cy="258.455" r="1.5" fill="#404040"/>
<circle cx="115.455" cy="258.455" r="1.5" fill="#404040"/>
<circle cx="126.455" cy="258.455" r="1.5" fill="#404040"/>
<circle cx="137.455" cy="258.455" r="1.5" fill="#404040"/>
<circle cx="148.455" cy="258.455" r="1.5" fill="#404040"/>
<circle cx="159.455" cy="258.455" r="1.5" fill="#404040"/>
<circle cx="170.455" cy="258.455" r="1.5" fill="#404040"/>
<circle cx="181.455" cy="258.455" r="1.5" fill="#404040"/>
<circle cx="192.455" cy="258.455" r="1.5" fill="#404040"/>
<circle cx="203.455" cy="258.455" r="1.5" fill="#404040"/>
<circle cx="214.455" cy="258.455" r="1.5" fill="#404040"/>
<circle cx="225.455" cy="258.455" r="1.5" fill="#404040"/>
<circle cx="236.455" cy="258.455" r="1.5" fill="#404040"/>
<circle cx="247.455" cy="258.455" r="1.5" fill="#404040"/>
<circle cx="258.455" cy="258.455" r="1.5" fill="#404040"/>
<circle cx="269.455" cy="258.455" r="1.5" fill="#404040"/>
<circle cx="280.455" cy="258.455" r="1.5" fill="#404040"/>
<circle cx="291.455" cy="258.455" r="1.5" fill="#404040"/>
<circle cx="302.455" cy="258.455" r="1.5" fill="#404040"/>
</g>
<g clip-path="url(#clip23_114_2303)">
<circle cx="27.4551" cy="269.455" r="1.5" fill="#404040"/>
<circle cx="38.4551" cy="269.455" r="1.5" fill="#404040"/>
<circle cx="49.4551" cy="269.455" r="1.5" fill="#404040"/>
<circle cx="60.4551" cy="269.455" r="1.5" fill="#404040"/>
<circle cx="71.4551" cy="269.455" r="1.5" fill="#404040"/>
<circle cx="82.4551" cy="269.455" r="1.5" fill="#404040"/>
<circle cx="93.4551" cy="269.455" r="1.5" fill="#404040"/>
<circle cx="104.455" cy="269.455" r="1.5" fill="#404040"/>
<circle cx="115.455" cy="269.455" r="1.5" fill="#404040"/>
<circle cx="126.455" cy="269.455" r="1.5" fill="#404040"/>
<circle cx="137.455" cy="269.455" r="1.5" fill="#404040"/>
<circle cx="148.455" cy="269.455" r="1.5" fill="#404040"/>
<circle cx="159.455" cy="269.455" r="1.5" fill="#404040"/>
<circle cx="170.455" cy="269.455" r="1.5" fill="#404040"/>
<circle cx="181.455" cy="269.455" r="1.5" fill="#404040"/>
<circle cx="192.455" cy="269.455" r="1.5" fill="#404040"/>
<circle cx="203.455" cy="269.455" r="1.5" fill="#404040"/>
<circle cx="214.455" cy="269.455" r="1.5" fill="#404040"/>
<circle cx="225.455" cy="269.455" r="1.5" fill="#404040"/>
<circle cx="236.455" cy="269.455" r="1.5" fill="#404040"/>
<circle cx="247.455" cy="269.455" r="1.5" fill="#404040"/>
<circle cx="258.455" cy="269.455" r="1.5" fill="#404040"/>
<circle cx="269.455" cy="269.455" r="1.5" fill="#404040"/>
<circle cx="280.455" cy="269.455" r="1.5" fill="#404040"/>
<circle cx="291.455" cy="269.455" r="1.5" fill="#404040"/>
<circle cx="302.455" cy="269.455" r="1.5" fill="#404040"/>
</g>
<g clip-path="url(#clip24_114_2303)">
<circle cx="27.4551" cy="280.455" r="1.5" fill="#404040"/>
<circle cx="38.4551" cy="280.455" r="1.5" fill="#404040"/>
<circle cx="49.4551" cy="280.455" r="1.5" fill="#404040"/>
<circle cx="60.4551" cy="280.455" r="1.5" fill="#404040"/>
<circle cx="71.4551" cy="280.455" r="1.5" fill="#404040"/>
<circle cx="82.4551" cy="280.455" r="1.5" fill="#404040"/>
<circle cx="93.4551" cy="280.455" r="1.5" fill="#404040"/>
<circle cx="104.455" cy="280.455" r="1.5" fill="#404040"/>
<circle cx="115.455" cy="280.455" r="1.5" fill="#404040"/>
<circle cx="126.455" cy="280.455" r="1.5" fill="#404040"/>
<circle cx="137.455" cy="280.455" r="1.5" fill="#404040"/>
<circle cx="148.455" cy="280.455" r="1.5" fill="#404040"/>
<circle cx="159.455" cy="280.455" r="1.5" fill="#404040"/>
<circle cx="170.455" cy="280.455" r="1.5" fill="#404040"/>
<circle cx="181.455" cy="280.455" r="1.5" fill="#404040"/>
<circle cx="192.455" cy="280.455" r="1.5" fill="#404040"/>
<circle cx="203.455" cy="280.455" r="1.5" fill="#404040"/>
<circle cx="214.455" cy="280.455" r="1.5" fill="#404040"/>
<circle cx="225.455" cy="280.455" r="1.5" fill="#404040"/>
<circle cx="236.455" cy="280.455" r="1.5" fill="#404040"/>
<circle cx="247.455" cy="280.455" r="1.5" fill="#404040"/>
<circle cx="258.455" cy="280.455" r="1.5" fill="#404040"/>
<circle cx="269.455" cy="280.455" r="1.5" fill="#404040"/>
<circle cx="280.455" cy="280.455" r="1.5" fill="#404040"/>
<circle cx="291.455" cy="280.455" r="1.5" fill="#404040"/>
<circle cx="302.455" cy="280.455" r="1.5" fill="#404040"/>
</g>
<g clip-path="url(#clip25_114_2303)">
<circle cx="27.4551" cy="291.455" r="1.5" fill="#404040"/>
<circle cx="38.4551" cy="291.455" r="1.5" fill="#404040"/>
<circle cx="49.4551" cy="291.455" r="1.5" fill="#404040"/>
<circle cx="60.4551" cy="291.455" r="1.5" fill="#404040"/>
<circle cx="71.4551" cy="291.455" r="1.5" fill="#404040"/>
<circle cx="82.4551" cy="291.455" r="1.5" fill="#404040"/>
<circle cx="93.4551" cy="291.455" r="1.5" fill="#404040"/>
<circle cx="104.455" cy="291.455" r="1.5" fill="#404040"/>
<circle cx="115.455" cy="291.455" r="1.5" fill="#404040"/>
<circle cx="126.455" cy="291.455" r="1.5" fill="#404040"/>
<circle cx="137.455" cy="291.455" r="1.5" fill="#404040"/>
<circle cx="148.455" cy="291.455" r="1.5" fill="#404040"/>
<circle cx="159.455" cy="291.455" r="1.5" fill="#404040"/>
<circle cx="170.455" cy="291.455" r="1.5" fill="#404040"/>
<circle cx="181.455" cy="291.455" r="1.5" fill="#404040"/>
<circle cx="192.455" cy="291.455" r="1.5" fill="#404040"/>
<circle cx="203.455" cy="291.455" r="1.5" fill="#404040"/>
<circle cx="214.455" cy="291.455" r="1.5" fill="#404040"/>
<circle cx="225.455" cy="291.455" r="1.5" fill="#404040"/>
<circle cx="236.455" cy="291.455" r="1.5" fill="#404040"/>
<circle cx="247.455" cy="291.455" r="1.5" fill="#404040"/>
<circle cx="258.455" cy="291.455" r="1.5" fill="#404040"/>
<circle cx="269.455" cy="291.455" r="1.5" fill="#404040"/>
<circle cx="280.455" cy="291.455" r="1.5" fill="#404040"/>
<circle cx="291.455" cy="291.455" r="1.5" fill="#404040"/>
<circle cx="302.455" cy="291.455" r="1.5" fill="#404040"/>
</g>
<g clip-path="url(#clip26_114_2303)">
<circle cx="27.4551" cy="302.455" r="1.5" fill="#404040"/>
<circle cx="38.4551" cy="302.455" r="1.5" fill="#404040"/>
<circle cx="49.4551" cy="302.455" r="1.5" fill="#404040"/>
<circle cx="60.4551" cy="302.455" r="1.5" fill="#404040"/>
<circle cx="71.4551" cy="302.455" r="1.5" fill="#404040"/>
<circle cx="82.4551" cy="302.455" r="1.5" fill="#404040"/>
<circle cx="93.4551" cy="302.455" r="1.5" fill="#404040"/>
<circle cx="104.455" cy="302.455" r="1.5" fill="#404040"/>
<circle cx="115.455" cy="302.455" r="1.5" fill="#404040"/>
<circle cx="126.455" cy="302.455" r="1.5" fill="#404040"/>
<circle cx="137.455" cy="302.455" r="1.5" fill="#404040"/>
<circle cx="148.455" cy="302.455" r="1.5" fill="#404040"/>
<circle cx="159.455" cy="302.455" r="1.5" fill="#404040"/>
<circle cx="170.455" cy="302.455" r="1.5" fill="#404040"/>
<circle cx="181.455" cy="302.455" r="1.5" fill="#404040"/>
<circle cx="192.455" cy="302.455" r="1.5" fill="#404040"/>
<circle cx="203.455" cy="302.455" r="1.5" fill="#404040"/>
<circle cx="214.455" cy="302.455" r="1.5" fill="#404040"/>
<circle cx="225.455" cy="302.455" r="1.5" fill="#404040"/>
<circle cx="236.455" cy="302.455" r="1.5" fill="#404040"/>
<circle cx="247.455" cy="302.455" r="1.5" fill="#404040"/>
<circle cx="258.455" cy="302.455" r="1.5" fill="#404040"/>
<circle cx="269.455" cy="302.455" r="1.5" fill="#404040"/>
<circle cx="280.455" cy="302.455" r="1.5" fill="#404040"/>
<circle cx="291.455" cy="302.455" r="1.5" fill="#404040"/>
<circle cx="302.455" cy="302.455" r="1.5" fill="#404040"/>
</g>
</g>
</mask>
<g mask="url(#mask0_114_2303)">
<circle cx="164.536" cy="165.463" r="146.924" fill="url(#paint0_radial_114_2303)" fill-opacity="0.4"/>
</g>
<defs>
<radialGradient id="paint0_radial_114_2303" cx="0" cy="0" r="1" gradientUnits="userSpaceOnUse" gradientTransform="translate(164.536 165.463) rotate(92.2578) scale(147.038)">
<stop stop-color="#292524" stop-opacity="0.8"/>
<stop offset="1" stop-color="#737373" stop-opacity="0"/>
</radialGradient>
<clipPath id="clip0_114_2303">
<rect width="278.09" height="278.09" fill="white" transform="translate(25.9551 25.9551)"/>
</clipPath>
<clipPath id="clip1_114_2303">
<rect width="300" height="11" fill="white" transform="translate(25.9551 25.9551)"/>
</clipPath>
<clipPath id="clip2_114_2303">
<rect width="300" height="11" fill="white" transform="translate(25.9551 36.9551)"/>
</clipPath>
<clipPath id="clip3_114_2303">
<rect width="300" height="11" fill="white" transform="translate(25.9551 47.9551)"/>
</clipPath>
<clipPath id="clip4_114_2303">
<rect width="300" height="11" fill="white" transform="translate(25.9551 58.9551)"/>
</clipPath>
<clipPath id="clip5_114_2303">
<rect width="300" height="11" fill="white" transform="translate(25.9551 69.9551)"/>
</clipPath>
<clipPath id="clip6_114_2303">
<rect width="300" height="11" fill="white" transform="translate(25.9551 80.9551)"/>
</clipPath>
<clipPath id="clip7_114_2303">
<rect width="300" height="11" fill="white" transform="translate(25.9551 91.9551)"/>
</clipPath>
<clipPath id="clip8_114_2303">
<rect width="300" height="11" fill="white" transform="translate(25.9551 102.955)"/>
</clipPath>
<clipPath id="clip9_114_2303">
<rect width="300" height="11" fill="white" transform="translate(25.9551 113.955)"/>
</clipPath>
<clipPath id="clip10_114_2303">
<rect width="300" height="11" fill="white" transform="translate(25.9551 124.955)"/>
</clipPath>
<clipPath id="clip11_114_2303">
<rect width="300" height="11" fill="white" transform="translate(25.9551 135.955)"/>
</clipPath>
<clipPath id="clip12_114_2303">
<rect width="300" height="11" fill="white" transform="translate(25.9551 146.955)"/>
</clipPath>
<clipPath id="clip13_114_2303">
<rect width="300" height="11" fill="white" transform="translate(25.9551 157.955)"/>
</clipPath>
<clipPath id="clip14_114_2303">
<rect width="300" height="11" fill="white" transform="translate(25.9551 168.955)"/>
</clipPath>
<clipPath id="clip15_114_2303">
<rect width="300" height="11" fill="white" transform="translate(25.9551 179.955)"/>
</clipPath>
<clipPath id="clip16_114_2303">
<rect width="300" height="11" fill="white" transform="translate(25.9551 190.955)"/>
</clipPath>
<clipPath id="clip17_114_2303">
<rect width="300" height="11" fill="white" transform="translate(25.9551 201.955)"/>
</clipPath>
<clipPath id="clip18_114_2303">
<rect width="300" height="11" fill="white" transform="translate(25.9551 212.955)"/>
</clipPath>
<clipPath id="clip19_114_2303">
<rect width="300" height="11" fill="white" transform="translate(25.9551 223.955)"/>
</clipPath>
<clipPath id="clip20_114_2303">
<rect width="300" height="11" fill="white" transform="translate(25.9551 234.955)"/>
</clipPath>
<clipPath id="clip21_114_2303">
<rect width="300" height="11" fill="white" transform="translate(25.9551 245.955)"/>
</clipPath>
<clipPath id="clip22_114_2303">
<rect width="300" height="11" fill="white" transform="translate(25.9551 256.955)"/>
</clipPath>
<clipPath id="clip23_114_2303">
<rect width="300" height="11" fill="white" transform="translate(25.9551 267.955)"/>
</clipPath>
<clipPath id="clip24_114_2303">
<rect width="300" height="11" fill="white" transform="translate(25.9551 278.955)"/>
</clipPath>
<clipPath id="clip25_114_2303">
<rect width="300" height="11" fill="white" transform="translate(25.9551 289.955)"/>
</clipPath>
<clipPath id="clip26_114_2303">
<rect width="300" height="11" fill="white" transform="translate(25.9551 300.955)"/>
</clipPath>
</defs>
</svg>
